HIERARCHY
ROOT hip
{
  OFFSET 0 0 0
  CHANNELS 6 Xposition Yposition Zposition Zrotation Yrotation Xrotation
  JOINT abdomen
  {
    OFFSET 0 20.6881 -0.73152
    CHANNELS 3 Zrotation Xrotation Yrotation
    JOINT chest
    {
      OFFSET 0 11.7043 -0.48768
      CHANNELS 3 Zrotation Xrotation Yrotation
      JOINT neck
      {
        OFFSET 0 22.1894 -2.19456
        CHANNELS 3 Zrotation Xrotation Yrotation
        JOINT head
        {
          OFFSET -0.24384 7.07133 1.2192
          CHANNELS 3 Zrotation Xrotation Yrotation
          JOINT leftEye
          {
            OFFSET 4.14528 8.04674 8.04672
            CHANNELS 3 Zrotation Xrotation Yrotation
            End Site
            {
              OFFSET 1 0 0
            }
          }
          JOINT rightEye
          {
            OFFSET -3.6576 8.04674 8.04672
            CHANNELS 3 Zrotation Xrotation Yrotation
            End Site
            {
              OFFSET 1 0 0
            }
          }
        }
      }
      JOINT rCollar
      {
        OFFSET -2.68224 19.2634 -4.8768
        CHANNELS 3 Zrotation Xrotation Yrotation
        JOINT rShldr
        {
          OFFSET -8.77824 -1.95073 1.46304
          CHANNELS 3 Zrotation Xrotation Yrotation
          JOINT rForeArm
          {
            OFFSET -28.1742 -1.7115 0.48768
            CHANNELS 3 Zrotation Xrotation Yrotation
            JOINT rHand
            {
              OFFSET -22.5879 0.773209 7.07136
              CHANNELS 3 Zrotation Xrotation Yrotation
              JOINT rThumb1
              {
                OFFSET -1.2192 -0.487915 3.41376
                CHANNELS 3 Zrotation Xrotation Yrotation
                JOINT rThumb2
                {
                  OFFSET -3.37035 -0.52449 3.41376
                  CHANNELS 3 Zrotation Xrotation Yrotation
                  End Site
                  {
                    OFFSET -1.78271 -1.18214 1.43049
                  }
                }
              }
              JOINT rIndex1
              {
                OFFSET -7.75947 0.938293 5.60832
                CHANNELS 3 Zrotation Xrotation Yrotation
                JOINT rIndex2
                {
                  OFFSET -2.54057 -0.884171 1.56538
                  CHANNELS 3 Zrotation Xrotation Yrotation
                  End Site
                  {
                    OFFSET -1.62519 -0.234802 1.16502
                  }
                }
              }
              JOINT rMid1
              {
                OFFSET -8.24714 1.18213 3.41376
                CHANNELS 3 Zrotation Xrotation Yrotation
                JOINT rMid2
                {
                  OFFSET -3.10165 -0.590103 1.0647
                  CHANNELS 3 Zrotation Xrotation Yrotation
                  End Site
                  {
                    OFFSET -2.48547 -0.328903 0.83742
                  }
                }
              }
              JOINT rRing1
              {
                OFFSET -8.82822 0.546677 1.51678
                CHANNELS 3 Zrotation Xrotation Yrotation
                JOINT rRing2
                {
                  OFFSET -2.60934 -0.819778 -0.0198488
                  CHANNELS 3 Zrotation Xrotation Yrotation
                  End Site
                  {
                    OFFSET -2.33842 -0.294052 0.168128
                  }
                }
              }
              JOINT rPinky1
              {
                OFFSET -8.27202 -0.0477905 -0.4584
                CHANNELS 3 Zrotation Xrotation Yrotation
                JOINT rPinky2
                {
                  OFFSET -1.82734 -0.647385 -0.700984
                  CHANNELS 3 Zrotation Xrotation Yrotation
                  End Site
                  {
                    OFFSET -1.69225 -0.51767 -0.607171
                  }
                }
              }
            }
          }
        }
      }
      JOINT lCollar
      {
        OFFSET 2.68224 19.2634 -4.8768
        CHANNELS 3 Zrotation Xrotation Yrotation
        JOINT lShldr
        {
          OFFSET 8.77824 -1.95073 1.46304
          CHANNELS 3 Zrotation Xrotation Yrotation
          JOINT lForeArm
          {
            OFFSET 28.1742 -1.7115 0.48768
            CHANNELS 3 Zrotation Xrotation Yrotation
            JOINT lHand
            {
              OFFSET 22.5879 0.773209 7.07136
              CHANNELS 3 Zrotation Xrotation Yrotation
              JOINT lThumb1
              {
                OFFSET 1.2192 -0.487915 3.41376
                CHANNELS 3 Zrotation Xrotation Yrotation
                JOINT lThumb2
                {
                  OFFSET 3.37035 -0.52449 3.41376
                  CHANNELS 3 Zrotation Xrotation Yrotation
                  End Site
                  {
                    OFFSET 1.78271 -1.18214 1.43049
                  }
                }
              }
              JOINT lIndex1
              {
                OFFSET 7.75947 0.938293 5.60832
                CHANNELS 3 Zrotation Xrotation Yrotation
                JOINT lIndex2
                {
                  OFFSET 2.54057 -0.884171 1.56538
                  CHANNELS 3 Zrotation Xrotation Yrotation
                  End Site
                  {
                    OFFSET 1.62519 -0.234802 1.16502
                  }
                }
              }
              JOINT lMid1
              {
                OFFSET 8.24714 1.18213 3.41376
                CHANNELS 3 Zrotation Xrotation Yrotation
                JOINT lMid2
                {
                  OFFSET 3.10165 -0.590103 1.0647
                  CHANNELS 3 Zrotation Xrotation Yrotation
                  End Site
                  {
                    OFFSET 2.48547 -0.328903 0.83742
                  }
                }
              }
              JOINT lRing1
              {
                OFFSET 8.82822 0.546677 1.51678
                CHANNELS 3 Zrotation Xrotation Yrotation
                JOINT lRing2
                {
                  OFFSET 2.60934 -0.819778 -0.0198488
                  CHANNELS 3 Zrotation Xrotation Yrotation
                  End Site
                  {
                    OFFSET 2.33842 -0.294052 0.168128
                  }
                }
              }
              JOINT lPinky1
              {
                OFFSET 8.27202 -0.0477905 -0.4584
                CHANNELS 3 Zrotation Xrotation Yrotation
                JOINT lPinky2
                {
                  OFFSET 1.82734 -0.647385 -0.700984
                  CHANNELS 3 Zrotation Xrotation Yrotation
                  End Site
                  {
                    OFFSET 1.69225 -0.51767 -0.607171
                  }
                }
              }
            }
          }
        }
      }
    }
  }
  JOINT rButtock
  {
    OFFSET -8.77824 4.35084 1.2192
    CHANNELS 3 Zrotation Xrotation Yrotation
    JOINT rThigh
    {
      OFFSET 0 -1.70687 -2.19456
      CHANNELS 3 Zrotation Xrotation Yrotation
      JOINT rShin
      {
        OFFSET 0 -36.8199 0.73152
        CHANNELS 3 Zrotation Xrotation Yrotation
        JOINT rFoot
        {
          OFFSET 0.73152 -45.1104 -5.12064
          CHANNELS 3 Zrotation Xrotation Yrotation
          End Site
          {
            OFFSET -1.1221 -3.69964 12.103
          }
        }
      }
    }
  }
  JOINT lButtock
  {
    OFFSET 8.77824 4.35084 1.2192
    CHANNELS 3 Zrotation Xrotation Yrotation
    JOINT lThigh
    {
      OFFSET 0 -1.70687 -2.19456
      CHANNELS 3 Zrotation Xrotation Yrotation
      JOINT lShin
      {
        OFFSET 0 -36.8199 0.73152
        CHANNELS 3 Zrotation Xrotation Yrotation
        JOINT lFoot
        {
          OFFSET -0.73152 -45.1104 -5.12064
          CHANNELS 3 Zrotation Xrotation Yrotation
          End Site
          {
            OFFSET 1.1221 -3.69964 12.103
          }
        }
      }
    }
  }
}
MOTION
Frames:	8
Frame Time:	0.03333
0.0 0.0 0.0 0.0 0.0 0.0 0.0 0.0 0.0 0.0 0.0 0.0 0.0 0.0 0.0 0.0 0.0 0.0 0.0 0.0 0.0 0.0 0.0 0.0 0.0 0.0 0.0 0.0 0.0 0.0 0.0 0.0 0.0 0.0 0.0 0.0 0.0 0.0 0.0 0.0 0.0 0.0 0.0 0.0 0.0 0.0 0.0 0.0 0.0 0.0 0.0 0.0 0.0 0.0 0.0 0.0 0.0 0.0 0.0 0.0 0.0 0.0 0.0 0.0 0.0 0.0 0.0 0.0 0.0 0.0 0.0 0.0 0.0 0.0 0.0 0.0 0.0 0.0 0.0 0.0 0.0 0.0 0.0 0.0 0.0 0.0 0.0 0.0 0.0 0.0 0.0 0.0 0.0 0.0 0.0 0.0 0.0 0.0 0.0 0.0 0.0 0.0 0.0 0.0 0.0 0.0 0.0 0.0 0.0 0.0 0.0 0.0 0.0 0.0 0.0 0.0 0.0 0.0 0.0 0.0 0.0 0.0 0.0 0.0 0.0 0.0 0.0 0.0 0.0 0.0 0.0 0.0
-0.10070000000000001 62.712599999999995 -2.2395 149.839341 71.577099 152.629869 -11.533142 27.44147 -0.0 -5.568432 -11.449553 18.769788 7.299667 17.845524 57.60621 -27.35267 -10.203608 -19.421932 0.002249 0.0 0.001252 0.002249 0.0 0.001252 -159.220473 -48.724761 170.568796 -10.481647 19.816005 -32.345492 -159.368535 41.02546 -86.050847 -4.106071 14.339756 0.203094 -9.972755 9.455016 2.33251 -14.412725 13.06598 17.713851 -18.64881 23.635004 12.969806 -23.870723 35.029805 15.326248 -160.825426 -7.141966 143.316245 -3.146395 16.845539 3.578482 -145.119685 0.185955 -179.185451 -66.968382 87.687451 80.221 -145.721998 13.817606 -142.303528 -126.603657 -29.686217 -124.08235 -4.239845 -44.742787 8.646871 83.691139 -43.803307 125.998978 169.326325 46.185201 83.879824 8.062236 -9.56674 3.849114 78.030021 38.689339 -42.413156 -25.567647 -27.287019 -19.702463 -5.742346 -9.850919 2.8909 -2.006608 14.494111 -2.733468 22.004051 41.041347 -17.006751 85.833851 64.18732 -77.828771 72.759477 -72.141594 89.773016 -14.729831 0.477128 4.524629 -12.631775 42.934017 -10.534721 11.372195 -26.550868 12.074567 -0.000113 -0.001142 0.000145 -42.043977 -40.748472 -146.978958 -87.282021 -26.821871 3.896746 -82.781238 -81.661256 1.852581 179.997516 75.750784 0.0017 -152.29855 22.905399 -180.0 -47.223342 -61.497089 -36.374694 -101.739894 43.361937 150.849133
-0.2737 61.9023 -3.3826 151.149736 72.140908 153.995026 -9.813998 21.89898 -155.118442 8.594712 3.526856 173.805677 -10.764832 28.463297 -99.594375 37.064922 18.401032 136.724941 0.002528 0.0 0.000545 0.002528 0.0 0.000545 -40.045876 -86.055584 -61.577377 -46.502396 -43.986653 -73.201247 6.53732 1.108005 -140.050851 168.765863 -20.724941 143.294129 -78.030392 38.689322 42.41286 3.51337 -15.532043 23.927835 10.211496 -18.050571 -4.565562 -7.681874 26.183506 7.956105 -160.097397 -4.901359 142.968658 -85.909536 63.8585 77.76284 -145.119981 0.226128 -179.200473 11.905776 29.6025 -5.639017 -126.133585 -27.46936 -123.868657 -147.584175 14.1009 -142.56933 142.973691 39.431494 -147.38974 -94.910142 -39.83048 -115.004505 13.39603 -64.487928 -87.589945 6.846011 -14.046054 4.30566 103.199689 36.330621 -60.110994 23.51861 -12.324687 -31.792716 50.386464 40.826614 -40.024386 172.421838 -23.011624 -111.728726 160.573317 -6.359506 -143.197587 172.308689 -31.36183 -143.654434 73.16466 -72.143312 90.197724 85.317507 83.016273 -103.214919 1.168738 -2.963013 1.082377 -15.218705 43.992227 -8.720902 -9.3e-05 0.000825 0.000119 -42.967933 -39.691212 -55.564022 -58.821161 72.039745 94.356036 47.107742 -68.120396 -23.245975 0.004019 -0.00028 0.004019 33.877273 -40.397034 24.048489 13.913072 55.069062 -48.892746 86.849839 10.223559 -38.186269
-0.45799999999999996 61.0345 -4.434 153.249368 72.41876 156.275819 -10.363212 25.745024 4.149636 -5.592656 -11.010726 14.156112 -11.413536 25.385113 -81.542393 37.236973 8.109395 122.04158 0.000731 -0.0 -0.001171 0.000731 -0.0 -0.001171 -155.548032 -3.804169 161.900351 -40.169226 -0.635076 0.591812 109.12457 -39.187769 -115.309072 -99.602773 74.583104 80.038454 1.600652 -1.58635 -0.224351 -86.209712 23.05524 78.569841 -45.474517 39.421286 35.670122 -155.673617 2.426705 110.864352 89.034216 -81.394513 59.758068 -86.047242 64.045858 77.697386 -74.841758 72.96029 92.828256 5.08642 28.728136 -0.657012 -125.809097 -27.87702 -123.550574 -40.895192 -48.791501 -42.221901 -3.20646 -26.010421 5.104863 -66.405022 28.792525 21.484037 178.755032 35.137491 -42.76581 171.121019 4.919872 -141.388758 -4.530719 -4.514167 0.520897 -21.280918 -40.363882 18.742902 95.09808 39.750438 -80.125165 -46.894354 -53.32417 -7.303454 36.036173 51.723044 -29.832446 -3.335268 0.218224 -0.097686 0.015463 -1.323268 0.4151 156.098083 -15.989087 -173.745967 -0.099721 0.258464 -0.089245 -35.476693 80.484738 -0.881629 179.973486 75.748944 0.021815 145.939125 21.117099 -73.306994 -88.845602 1.570043 8.048377 178.886671 -14.404784 -56.990571 179.998073 75.750047 0.001988 -152.61029 26.96807 84.663362 69.123812 -19.112819 75.601225 -43.430523 2.972948 170.913534
-0.6947 60.2146 -5.383 156.139194 72.512803 159.218746 -11.659375 21.751439 116.66008 -6.194488 5.551832 -97.187665 -11.335962 23.613752 -71.908173 36.346189 2.701138 114.084812 -0.002893 0.0 -0.001083 0.003069 0.0 0.003623 -155.503725 -3.514422 161.83894 -42.483676 32.142802 4.299886 175.548953 4.519317 -73.209147 -12.645934 36.262293 2.879659 -169.583763 -7.26546 89.928999 -121.665981 12.289207 57.381212 11.982553 -21.346603 -5.060003 9.50965 6.465805 -0.082735 -6.769975 17.384224 4.416833 -163.363667 -5.241437 143.393087 -0.007147 3.559055 1.119406 -148.491251 -76.768034 -171.072003 12.634341 42.933786 10.531929 -147.002308 8.156614 -142.502583 22.153733 52.541043 -24.344577 -63.081021 -9.289323 -45.629127 -38.584795 -19.298843 -125.365162 23.678795 30.387085 -6.045494 -102.159018 -51.173176 -46.988408 131.994581 24.965609 -90.762768 28.900726 31.616053 -21.338507 164.407291 -12.40741 -111.12 151.476508 17.84184 -137.539195 -3.068101 0.711124 -0.433183 70.379588 -72.130025 87.28007 -14.723181 -0.027366 4.525804 -0.097156 0.258585 -0.091308 -28.290052 75.23939 -6.346212 -0.002524 -0.000354 -0.001262 -44.943973 -41.668372 -111.372393 -88.959103 23.181434 179.712132 -141.226358 -46.306853 147.79896 -179.991476 75.748337 -0.007013 -151.816869 25.773944 129.059762 34.798872 -59.63322 -55.066189 -144.345341 22.762444 70.083093
-0.9634 59.451699999999995 -6.311 159.547151 72.302706 162.759809 -7.695758 20.148407 -158.579776 7.075648 4.52609 176.097611 9.616022 28.629971 124.229456 -30.271024 27.179606 -76.59725 0.000579 -0.0 -0.000244 0.000579 -0.0 -0.000244 -130.390203 54.572007 134.256657 -27.864269 -0.208269 47.725131 168.003487 -71.308665 -88.178382 -10.657677 31.438391 1.897948 11.509586 -11.486879 -0.622268 -4.030348 1.124186 -4.479086 -90.226377 41.073712 75.796661 47.202506 -53.113748 7.744006 -0.056844 0.167941 0.032817 -10.682396 32.268384 8.523237 0.001502 0.022727 0.006396 11.107881 -13.792262 -1.712897 -146.226752 15.470569 -142.747022 -84.055583 -52.14965 -83.400246 9.651418 34.836301 -11.198693 -98.648916 -47.019248 -44.137366 -177.649884 -7.399378 -39.591906 169.766377 8.679704 -140.607998 78.030012 38.690237 -42.41291 -6.498786 -17.041363 -23.089576 0.327133 0.53033 -0.1843 3.259448 19.084865 -4.817582 -0.541182 -1.589909 0.295217 179.673508 -48.72934 -141.472998 0.000886 -0.018587 0.005309 156.353758 -46.139126 -177.533802 -1.480716 4.004094 -1.359567 94.680913 -51.959764 93.958969 179.985787 75.750236 0.009725 145.651341 18.612617 -115.034 -100.388488 -35.908942 -69.815255 -137.921373 44.192274 -127.621043 -0.000284 0.000503 0.000365 36.292883 -42.190328 180.0 42.904056 -60.072842 109.114324 142.386882 -13.520371 -131.34749
-1.2125000000000001 58.660999999999994 -7.187200000000001 162.182019 71.889026 165.558281 -6.512287 20.331966 -134.329684 8.996742 1.307956 151.499985 -11.470777 25.160134 -80.311208 37.7296 7.879385 120.622438 0.001715 -0.0 -0.001839 0.001166 -0.0 -0.000516 -9.652274 34.836 11.199928 61.543055 -10.425178 35.079884 -11.139259 9.861657 110.858399 -3.308713 11.078869 0.015991 -95.360757 37.750322 54.682692 -1.362892 -18.510837 26.228647 -98.708803 38.54195 83.306966 46.67436 -53.476184 6.970462 -153.321076 13.628617 138.861221 -144.872755 36.099497 131.79561 -78.572842 -72.041919 -95.867368 12.289595 45.39364 2.307368 9.031081 28.890578 7.893907 -151.787176 25.214985 -146.358965 59.831382 -86.721445 81.632107 -123.951344 48.028365 109.246664 67.737901 -44.437253 -51.983876 -8.02968 -56.303927 2.257822 24.461037 21.010942 -8.175126 153.756514 -53.183361 -102.460172 83.733248 42.330782 -69.989731 163.069784 -7.975122 -114.291511 8.415353 20.880703 -5.644882 -1.927847 4.032194 -0.569066 145.120174 0.309608 179.226724 -11.961259 31.798245 5.394695 -0.098043 0.258161 -0.092899 94.625066 -51.95466 93.97662 0.000157 0.000292 -0.000202 -49.144449 -41.333522 35.262644 93.636254 8.810629 17.890399 -81.888805 -37.574106 -152.889953 0.009705 0.0008 0.009705 36.797502 -41.536527 48.444259 54.379847 44.781921 16.380112 -0.666042 -37.244623 -88.318219
-1.4544 57.917300000000004 -8.0719 163.977857 71.385604 167.510566 -8.376136 24.026531 3.110339 -3.683283 -11.246017 14.161308 9.915608 21.855041 83.290946 -33.348361 3.43004 -42.156735 0.003297 0.0 0.002339 -0.002403 -0.0 0.002002 -40.037659 -86.056155 -61.569252 153.520942 42.820306 -125.470453 -90.884092 -32.892351 62.740043 30.043058 -55.663117 18.732239 -157.99979 4.195461 88.452222 110.566722 -56.284774 76.310832 -108.428334 34.16071 91.742381 152.830843 -59.030323 95.886393 -36.035974 51.723508 29.831314 -163.419674 -5.750408 143.354235 0.000229 -0.060887 -0.018857 -154.315163 11.948489 170.225829 -152.202444 37.33022 -147.581286 -156.551268 38.539568 -146.27577 -0.16264 -0.990027 0.219071 127.207201 -85.555859 -167.763659 -124.678587 14.61435 5.748853 68.297628 61.189791 -47.025742 -114.538145 -50.245613 -55.722919 116.1971 33.098323 -71.317077 148.886879 -12.608967 -120.246054 -95.6017 -70.640205 -42.942648 167.374722 -28.00827 -145.27071 -3.011221 0.380413 -0.39581 74.840089 72.96204 -92.827569 -5.1685 27.46128 0.857047 -0.100342 0.257819 -0.092466 147.658845 12.717705 143.943613 2e-05 0.000225 2e-05 -50.234321 -41.768198 35.804425 100.369446 14.808867 95.91663 -105.453205 36.684282 -150.750255 2e-05 0.000225 2e-05 39.160997 -42.676163 29.498763 9.298249 69.835286 -131.336567 151.143667 -7.463688 -132.479814
